<svg version="1.1" xmlns="http://www.w3.org/2000/svg" viewBox="0 0 3452.7703568147476 1247.734767593089" width="6905.540713629495" height="2495.469535186178">
  <!-- svg-source:excalidraw -->
  
  <defs>
    <style class="style-fonts">
      @font-face {
        font-family: "Virgil";
        src: url("https://excalidraw.com/Virgil.woff2");
      }
      @font-face {
        font-family: "Cascadia";
        src: url("https://excalidraw.com/Cascadia.woff2");
      }
    </style>
    
  </defs>
  <rect x="0" y="0" width="3452.7703568147476" height="1247.734767593089" fill="#ffffff"></rect><g stroke-linecap="round" transform="translate(459.042981379906 377.1686006295049) rotate(0 66.99990151819063 84.3702072162111)"><path d="M-1.17 0.42 C37.57 -0.93, 72.98 -2.69, 132.81 1.41 M0.48 0.47 C28.24 -0.18, 58 0.77, 133.9 -0.63 M132.65 -1.54 C133.44 34, 131.35 67.84, 134.25 167.38 M134.39 0.12 C131.81 33.77, 132.22 67.96, 134.24 168.82 M133.28 166.96 C100.83 168.94, 69.43 169.12, 0.09 167.4 M134.23 169.28 C101.8 168.94, 69.42 169.66, -0.44 169.67 M1.29 168.26 C0.54 113.34, 0.67 58.55, 1.96 -0.77 M-0.81 168.82 C0.12 118.23, -0.41 65.56, -0.95 -0.22" stroke="#000000" stroke-width="1" fill="none"></path></g><g transform="translate(508.2191447999521 453.05097184463335) rotate(0 17.82373809814453 8.487836001082655)"><text x="17.82373809814453" y="0" font-family="Virgil, Segoe UI Emoji" font-size="13.580537601732258px" fill="#000000" text-anchor="middle" style="white-space: pre;" direction="ltr" dominant-baseline="text-before-edge">GDoc</text></g><g stroke-linecap="round" transform="translate(945.7088491276872 360.8488207586105) rotate(0 72.82318214554701 91.70322386362834)"><path d="M-0.56 -0.76 C39.24 1.1, 79.41 3.12, 146.61 -1 M-0.31 0.04 C52.71 -1.75, 103.97 -0.96, 145 -0.77 M146.83 1.81 C143.4 52.36, 143.8 108.3, 147.49 182.62 M146.09 0.5 C147.37 59.73, 147.56 120.64, 145 182.62 M145.85 182.25 C92.85 183.87, 40.98 183.41, -1.23 184.19 M144.99 183.57 C89.11 182.36, 32.32 181.42, 0.46 183.74 M-1.24 182.89 C-0.89 125.77, 0.61 69.48, -0.93 0.77 M-0.76 183.61 C-0.41 112.64, -0.37 40.9, 0.52 0.32" stroke="#000000" stroke-width="1" fill="none"></path></g><g transform="translate(993.9220535510663 440.0520446222388) rotate(0 24.60997772216797 12.5)"><text x="24.60997772216797" y="0" font-family="Virgil, Segoe UI Emoji" font-size="20px" fill="#000000" text-anchor="middle" style="white-space: pre;" direction="ltr" dominant-baseline="text-before-edge">.docx</text></g><g stroke-linecap="round" transform="translate(1266.239476765053 485.34284563411495) rotate(0 61.24518360644248 77.12352876321052)"><path d="M-0.81 -0.4 C26.44 -0.4, 53.16 -2.3, 123.32 -0.46 M-0.93 0.51 C29 -0.02, 59.07 -0.62, 121.86 0.05 M120.63 -1.68 C122.21 38.5, 121.1 77.5, 123.81 155.97 M122.85 -0.43 C121.98 41.39, 122.97 81.47, 122.15 154.27 M122.59 155.49 C89.21 155.34, 53.42 151.94, -0.72 152.55 M122.25 153.63 C76.26 154.8, 29.57 154, -0.32 154.78 M-0.48 154.58 C-1.33 113.25, 0.61 74.81, 0.22 -0.82 M0.53 153.48 C-0.16 116.86, 0.17 78.74, 0.66 0.4" stroke="#000000" stroke-width="1" fill="none"></path></g><g transform="translate(1305.358676179601 552.1002315411591) rotate(0 22.12598419189453 10.366142856166334)"><text x="22.12598419189453" y="0" font-family="Virgil, Segoe UI Emoji" font-size="16.585828569866152px" fill="#000000" text-anchor="middle" style="white-space: pre;" direction="ltr" dominant-baseline="text-before-edge">all.md</text></g><g stroke-linecap="round" transform="translate(1492.3245876219703 488.51065082762324) rotate(0 61.24518360644248 77.12352876321052)"><path d="M-1.85 0.01 C45.82 -0.99, 93.93 0.09, 123.97 0.64 M-0.75 0.5 C32.6 -0.21, 64.38 -0.67, 123.19 -0.99 M122.12 0.99 C123.95 53.7, 124.64 105.91, 121.17 152.52 M122.43 0.62 C121.45 44.78, 121.91 90.63, 123.02 155 M121.43 152.92 C79.53 155.07, 41.28 152.85, -1.59 156.02 M122.42 154.31 C83.54 154.15, 44.76 152.77, 0.21 154.87 M-1.44 152.95 C0.03 95.68, 0.01 39.52, 1.08 1.82 M-0.74 153.26 C-0.15 104.29, 0.08 52.42, -0.7 -0.25" stroke="#000000" stroke-width="1" fill="none"></path></g><g transform="translate(1507.75927012978 555.2680367346675) rotate(0 45.81050109863281 10.366142856166334)"><text x="45.81050109863281" y="0" font-family="Virgil, Segoe UI Emoji" font-size="16.585828569866152px" fill="#000000" text-anchor="middle" style="white-space: pre;" direction="ltr" dominant-baseline="text-before-edge">all-clean.md</text></g><g stroke-linecap="round" transform="translate(1683.353547323116 475.1176370618183) rotate(0 54.44921875 68.56565106220424)"><path d="M-1.73 1.97 C35.57 0.69, 70.97 1.94, 108.95 -0.13 M0.66 -0.43 C44.18 -0.14, 85.89 0.04, 108.16 -0.8 M110.17 0.69 C108.14 36.58, 107.29 74.4, 109.63 135.29 M109.36 0.05 C108.72 39.65, 108.17 78.58, 108.26 136.29 M110.69 136.47 C71.72 137.81, 37.98 135.47, -0.11 137.2 M108.38 136.17 C77.61 137.68, 45.7 138.46, -0.95 137.79 M0.78 136.52 C1.26 88, 2.06 36.49, 1.55 1.02 M-0.27 136.19 C0 84.44, -0.26 30.76, 0.33 -0.22" stroke="#000000" stroke-width="1" fill="none"></path></g><g transform="translate(1720.3327801112018 531.1832881240225) rotate(0 17.469985961914062 12.5)"><text x="17.469985961914062" y="0" font-family="Virgil, Segoe UI Emoji" font-size="20px" fill="#000000" text-anchor="middle" style="white-space: pre;" direction="ltr" dominant-baseline="text-before-edge">1.md</text></g><g stroke-linecap="round" transform="translate(2088.4981443709353 577.2410984842741) rotate(0 54.44921875 68.56565106220424)"><path d="M1.73 1.17 C24.55 1.61, 52.15 -1.91, 107.77 1.33 M-0.95 -0.37 C38.91 0.03, 76.54 -0.35, 108.02 0.79 M107.51 -0.02 C111.26 43.79, 110.34 90.07, 107.19 138.02 M108.91 -0.43 C109.55 37.62, 109.72 75.05, 108.26 138.08 M108.83 137.74 C75.44 136.18, 37.58 137.24, 1.93 137.26 M108.18 136.41 C82.3 137.41, 56.05 137.26, 0.4 136.46 M0.93 136.32 C0.56 108.21, 2.67 80.03, -1.91 -0.84 M-0.78 137.59 C-0.74 87.75, -1.19 37.85, -0.46 0.15" stroke="#000000" stroke-width="1" fill="none"></path></g><g transform="translate(2109.4273893660525 633.3067495464784) rotate(0 33.51997375488281 12.5)"><text x="33.51997375488281" y="0" font-family="Virgil, Segoe UI Emoji" font-size="20px" fill="#000000" text-anchor="middle" style="white-space: pre;" direction="ltr" dominant-baseline="text-before-edge">1+hf.md</text></g><g stroke-linecap="round" transform="translate(2891.451001984517 539.9124120084011) rotate(0 54.44921875 68.56565106220424)"><path d="M-0.04 1.2 C28.28 1.7, 60.76 2.68, 107.35 0.97 M-0.04 0.29 C27.2 -1.42, 53.08 -1.11, 108.73 -0.09 M108.88 0.08 C108.19 28.05, 109.26 54.6, 108.61 136.1 M109.08 -0.47 C106.89 39.94, 107.19 79.17, 108.91 136.36 M107.21 137.55 C75.79 137.51, 40.09 134.77, 1.16 138.52 M108.81 137.67 C70.27 138.09, 30.88 137.98, 0.17 136.82 M-0.91 138.29 C1.88 101.31, 1.1 62.14, -1.11 -1.76 M0.87 137.43 C-0.08 90.82, 0.77 44.64, 0.52 0.26" stroke="#000000" stroke-width="1" fill="none"></path></g><g transform="translate(2909.492246491353 598.4780630706053) rotate(0 36.40797424316406 10)"><text x="36.40797424316406" y="0" font-family="Virgil, Segoe UI Emoji" font-size="16px" fill="#1e1e1e" text-anchor="middle" style="white-space: pre;" direction="ltr" dominant-baseline="text-before-edge">template1</text></g><g stroke-linecap="round" transform="translate(2498.8522060604723 564.280922924676) rotate(0 54.44921875 68.56565106220427)"><path d="M1.4 0.29 C41.13 1.17, 80.53 -2, 110.76 -0.81 M-0.58 0.63 C27.66 -0.19, 56 0.56, 108.2 0.85 M107.86 -1.91 C110.01 52.36, 108.91 109.87, 108.31 137.5 M108.03 -0.67 C109.55 49.05, 108.23 97.76, 109.75 136.57 M110.45 138.57 C64.61 138.31, 24.06 137.01, -1.78 136.67 M108.41 136.68 C77.59 137.07, 46.28 136.57, -0.2 137.34 M-0.63 135.68 C1.8 89.1, -0.86 38.31, -0.48 -1.15 M-0.07 137.56 C0.26 94.43, -0.04 52.27, -0.48 -0.15" stroke="#000000" stroke-width="1" fill="none"></path></g><g transform="translate(2512.46145899016 622.8465739868802) rotate(0 40.8399658203125 10)"><text x="40.8399658203125" y="0" font-family="Virgil, Segoe UI Emoji" font-size="16px" fill="#1e1e1e" text-anchor="middle" style="white-space: pre;" direction="ltr" dominant-baseline="text-before-edge">1+hf . html</text></g><g stroke-linecap="round" transform="translate(2497.6431798650137 730.7309854318282) rotate(0 54.44921875 68.56565106220421)"><path d="M1.9 0.5 C40.84 -0.57, 80.67 0.97, 107.78 0.94 M-0.12 -0.13 C22.3 -0.31, 46.29 -0.06, 109.04 -0.61 M109.88 -1.04 C108.92 47.75, 109.14 93.35, 109.88 136.87 M108.16 0.7 C109.44 51.22, 108.35 102.61, 108.31 136.42 M107.97 135.37 C68.22 134.38, 27.34 136.34, -0.52 138.73 M109.66 137.34 C77.38 137.02, 46.89 137.02, -0.53 136.27 M0.04 136.96 C-0.72 96.1, 1.81 58.25, -0.67 -0.03 M-0.56 137.53 C0.21 99.04, -1.57 61.6, 0.33 -0.53" stroke="#000000" stroke-width="1" fill="none"></path></g><g transform="translate(2507.7244329167715 789.2966364940324) rotate(0 44.36796569824219 10)"><text x="44.36796569824219" y="0" font-family="Virgil, Segoe UI Emoji" font-size="16px" fill="#1e1e1e" text-anchor="middle" style="white-space: pre;" direction="ltr" dominant-baseline="text-before-edge">2+hf . html</text></g><g stroke-linecap="round" transform="translate(2638.089420268735 354.5670742322013) rotate(0 54.449218749999886 68.56565106220422)"><path d="M-1.14 1.84 C24.19 -1.8, 48.07 -1.94, 109.57 -0.31 M-0.45 0.75 C42.37 0.13, 85.26 1.68, 109.24 -0.57 M107.44 -0.79 C109.81 50.33, 110.28 103.88, 108.74 137.51 M109.46 0.2 C107.58 40.52, 107.79 82.32, 108.74 138.02 M110.8 138.55 C64.73 136.27, 25.58 136.83, 0.29 136.11 M107.97 136.99 C86.79 136.84, 65.71 136.78, -0.1 137.04 M1.52 137.44 C-1.39 108.68, -1.44 76.17, 1.64 1.25 M0.26 137.21 C0.31 100.01, 0.96 63.66, -0.33 0.38" stroke="#000000" stroke-width="1" fill="none"></path></g><g transform="translate(2661.5466727711764 413.13272529440553) rotate(0 30.99196624755848 10)"><text x="30.991966247558594" y="0" font-family="Virgil, Segoe UI Emoji" font-size="16px" fill="#1e1e1e" text-anchor="middle" style="white-space: pre;" direction="ltr" dominant-baseline="text-before-edge">config.js</text></g><g stroke-linecap="round" transform="translate(2891.6452741777493 750.2251440014501) rotate(0 54.44921875 68.56565106220427)"><path d="M1.24 -0.88 C32.9 1.15, 69.77 -0.86, 107.65 -1.04 M-0.72 -0.82 C40.97 0.05, 81.07 1.08, 109.62 -0.07 M108.67 1.88 C110.64 29.76, 107.66 56.12, 108.18 135.5 M108.83 -0.66 C108.83 52.52, 109.62 107.52, 108.66 136.49 M108.7 139.09 C75.12 136.63, 38.97 138.47, 0.49 138.87 M108.34 136.29 C78.8 137, 46.85 137.29, 0.95 137.61 M-1.74 135.62 C-2.08 92.49, -0.43 48.45, 1.28 1.28 M0.59 137.18 C1.3 85.49, 1.43 35.53, 0.6 -0.33" stroke="#000000" stroke-width="1" fill="none"></path></g><g stroke-linecap="round" transform="translate(1691.8565426475475 641.1951625427785) rotate(0 54.44921875 68.56565106220421)"><path d="M0.99 1.49 C24.63 1.5, 48.11 -0.52, 108.41 1.5 M-0.32 -0.04 C44.09 -1.21, 86.29 0.22, 108.09 -0.12 M110.56 -0.05 C110.88 33.63, 110.93 66.05, 107.8 137.85 M109.52 -0.1 C109.9 46.75, 109.47 92.82, 108.77 137.13 M108.12 137.58 C74.04 138.47, 36.28 136.09, -0.19 138.12 M109.83 137.85 C78.23 137.25, 47.39 137.69, 0.95 137.01 M-1.2 136.41 C-2.19 95.3, -0.79 52.63, 0.46 -1.47 M-0.97 136.17 C0.24 109.22, 0.72 80.93, -0.17 0.68" stroke="#000000" stroke-width="1" fill="none"></path></g><g transform="translate(1724.4257794029186 697.2608136049827) rotate(0 21.879981994628906 12.5)"><text x="21.879981994628906" y="0" font-family="Virgil, Segoe UI Emoji" font-size="20px" fill="#000000" text-anchor="middle" style="white-space: pre;" direction="ltr" dominant-baseline="text-before-edge">2.md</text></g><g stroke-linecap="round" transform="translate(2087.156883695702 743.8719404866215) rotate(0 54.44921875 68.56565106220421)"><path d="M-1.76 2 C36.13 -2.15, 72.07 0.69, 109.99 -1.33 M0.31 0.34 C35.11 0.36, 70.64 1.19, 109.17 0.95 M109.97 -1.03 C108.09 44.21, 106.24 88.44, 108.43 137.41 M109.36 -0.33 C109.53 36.44, 108.27 75.49, 109.14 137.85 M110.76 135.58 C69.51 136.97, 33.43 137.6, -1.1 135.21 M109.01 136.86 C71.29 135.93, 32.97 135.68, -0.9 136.4 M-0.44 137.01 C1.03 84.68, -2.55 30.41, 1.21 1.47 M0.27 137.18 C0.89 102.55, 0.61 68.95, -0.18 -0.35" stroke="#000000" stroke-width="1" fill="none"></path></g><g transform="translate(2103.6761326581045 799.9375915488257) rotate(0 37.929969787597656 12.5)"><text x="37.929969787597656" y="0" font-family="Virgil, Segoe UI Emoji" font-size="20px" fill="#000000" text-anchor="middle" style="white-space: pre;" direction="ltr" dominant-baseline="text-before-edge">2+hf.md</text></g><g stroke-linecap="round" transform="translate(1885.1428487662356 439.1715014217921) rotate(0 54.44921875 33.00573651487079)"><path d="M0.24 -1.8 C41.73 -1.44, 82.04 -1.91, 108.92 0.97 M-0.51 -0.65 C24.13 0.45, 50.62 0.78, 109.1 0.32 M109.46 0.78 C107.28 14.8, 107.83 30.04, 110.27 67.07 M107.93 0.48 C108.77 19.22, 110.01 38.43, 108.24 65.31 M107.16 66.44 C65.96 65.75, 24.92 64.85, -1.13 64.32 M109.73 65.78 C80.75 66.16, 51.23 64.73, -0.24 66.26 M-0.63 66.24 C-1.14 43.16, -0.37 18.79, -1.54 -1.14 M0.66 65.19 C-0.07 45.87, 1.36 23.5, -0.26 -0.89" stroke="#000000" stroke-width="1" fill="none"></path></g><g transform="translate(1901.2961004141848 462.1772379366629) rotate(0 38.29596710205078 10)"><text x="38.29596710205078" y="0" font-family="Virgil, Segoe UI Emoji" font-size="16px" fill="#000000" text-anchor="middle" style="white-space: pre;" direction="ltr" dominant-baseline="text-before-edge">Header.md</text></g><g stroke-linecap="round" transform="translate(1872.890094296232 883.6557355912772) rotate(0 54.44921875 33.00573651487076)"><path d="M0.23 -1.57 C26.68 -0.45, 51.83 -1.2, 107.76 0.4 M-0.82 -0.48 C26.85 0.23, 51.46 -0.98, 108.01 -0.53 M108.71 -0.34 C109.87 23.61, 109.41 45.37, 108.3 66.71 M108.77 0.98 C109.86 17.64, 108.04 35.89, 108.9 65.87 M110.27 65.92 C76.01 63.37, 42.21 64.92, 1.2 64.41 M108.12 66.5 C72.22 67.44, 37.61 66.86, 0.29 66.51 M-0.33 65.83 C-1.67 50.4, 0.69 31.23, 0.08 -1.92 M-0.15 65.49 C0.14 45.89, 0.56 27.93, -0.47 -0.65" stroke="#000000" stroke-width="1" fill="none"></path></g><g transform="translate(1889.739345089689 906.661472106148) rotate(0 37.59996795654297 10)"><text x="37.59996795654297" y="0" font-family="Virgil, Segoe UI Emoji" font-size="16px" fill="#000000" text-anchor="middle" style="white-space: pre;" direction="ltr" dominant-baseline="text-before-edge">Footer.md</text></g><g transform="translate(960.38767219076 646.4684718074666) rotate(0 47.109947204589844 12.5)"><text x="47.109947204589844" y="0" font-family="Virgil, Segoe UI Emoji" font-size="20px" fill="#000000" text-anchor="middle" style="white-space: pre;" direction="ltr" dominant-baseline="text-before-edge">Questions</text></g><g transform="translate(957.717277293299 706.294726715315) rotate(0 275.8878173828125 40)"><text x="0" y="0" font-family="Virgil, Segoe UI Emoji" font-size="16px" fill="#000000" text-anchor="start" style="white-space: pre;" direction="ltr" dominant-baseline="text-before-edge">* How to split each email out</text><text x="0" y="20" font-family="Virgil, Segoe UI Emoji" font-size="16px" fill="#000000" text-anchor="start" style="white-space: pre;" direction="ltr" dominant-baseline="text-before-edge">* convention for images (getting images out of docx etc is painful)</text><text x="0" y="40" font-family="Virgil, Segoe UI Emoji" font-size="16px" fill="#000000" text-anchor="start" style="white-space: pre;" direction="ltr" dominant-baseline="text-before-edge">e.g. under each image we have the url and we auto extract that link</text><text x="0" y="60" font-family="Virgil, Segoe UI Emoji" font-size="16px" fill="#000000" text-anchor="start" style="white-space: pre;" direction="ltr" dominant-baseline="text-before-edge">and use it in the markdown</text></g><g transform="translate(1428.9994971265696 383.72357970813505) rotate(0 99.4979476928711 17.5)"><text x="0" y="0" font-family="Virgil, Segoe UI Emoji" font-size="28px" fill="#000000" text-anchor="start" style="white-space: pre;" direction="ltr" dominant-baseline="text-before-edge">Markdown files</text></g><g mask="url(#mask-VE9dhs-ztau4pEATR5Qzo)" stroke-linecap="round"><g transform="translate(595.0298614025002 456.9535759176349) rotate(0 173.27264444379244 -2.5245728912847483)"><path d="M0.2 0.57 C114.23 -4.86, 228.79 -7.08, 346.52 -4.62 M-0.2 -0.51 C96.03 -3.63, 193.87 -5.4, 346.74 -5.5" stroke="#000000" stroke-width="1" fill="none"></path></g><g transform="translate(595.0298614025002 456.9535759176349) rotate(0 173.27264444379244 -2.5245728912847483)"><path d="M348.3 -5.32 L333.22 0.97 L332.29 -11.12 L347.63 -6.52" stroke="none" stroke-width="0" fill="#000000" fill-rule="evenodd"></path><path d="M346.98 -4.84 C342.5 -4.23, 338.67 -2.53, 333.2 2.09 M346.52 -6.08 C342.33 -3.5, 339.95 -1.93, 333.46 1.09 M332.59 2.16 C332.93 -3.39, 332.73 -6.94, 333.89 -10.89 M333.13 1.39 C333.72 -2.41, 332.55 -5.94, 333.19 -11.8 M331.97 -11.02 C336.77 -9.49, 341.18 -6.64, 347.04 -6.56 M332.87 -11.24 C337.74 -9.85, 342.17 -7.77, 346.78 -6.09 M346.74 -5.5 C346.74 -5.5, 346.74 -5.5, 346.74 -5.5 M346.74 -5.5 C346.74 -5.5, 346.74 -5.5, 346.74 -5.5" stroke="#000000" stroke-width="1" fill="none"></path></g></g><mask id="mask-VE9dhs-ztau4pEATR5Qzo"><rect x="0" y="0" fill="#fff" width="1041.5271514369495" height="562.6158014736543"></rect><rect x="712.9505416370099" y="444.1224631396252" fill="#000" width="110.65592956542969" height="20" opacity="1"></rect></mask><g transform="translate(712.95054163701 444.1224631396252) rotate(0 55.351964209282684 10.306539886724948)"><text x="55.327964782714844" y="0" font-family="Virgil, Segoe UI Emoji" font-size="16px" fill="#000000" text-anchor="middle" style="white-space: pre;" direction="ltr" dominant-baseline="text-before-edge">manual export</text></g><g transform="translate(1870.2968377607503 353.72503900667607) rotate(0 103.23991394042969 12.5)"><text x="0" y="0" font-family="Virgil, Segoe UI Emoji" font-size="20px" fill="#000000" text-anchor="start" style="white-space: pre;" direction="ltr" dominant-baseline="text-before-edge">Headers and Footers</text></g><g transform="translate(2852.078835747143 427.0966597472289) rotate(0 116.80195617675781 17.5)"><text x="0" y="0" font-family="Virgil, Segoe UI Emoji" font-size="28px" fill="#000000" text-anchor="start" style="white-space: pre;" direction="ltr" dominant-baseline="text-before-edge">Brevo Templates</text></g><g stroke-linecap="round"><g transform="translate(1968.7308582749693 516.3333262553841) rotate(0 55.49456996852075 54.49248486796941)"><path d="M1.95 -1.21 C42.64 40.02, 87.52 84.11, 110.57 110.2 M-0.72 0.28 C34.37 35.74, 70.02 69.17, 111.7 109.61" stroke="#000000" stroke-width="1" fill="none"></path></g><g transform="translate(1968.7308582749693 516.3333262553841) rotate(0 55.49456996852075 54.49248486796941)"><path d="M109.72 108.43 L97.73 103.41 L107.56 95.44 L113.64 108.6" stroke="none" stroke-width="0" fill="#000000" fill-rule="evenodd"></path><path d="M113.17 108.7 C105.7 107.21, 102.23 107.14, 96.89 105.01 M111.17 109.82 C106.44 108.61, 101.96 105.82, 97.74 104.57 M97.36 105.97 C98.4 103.35, 101.81 101.98, 107.11 96.5 M97.4 105.24 C100.66 101.92, 103.17 98.41, 106.36 95.69 M106.34 96.17 C107.54 100.31, 109.74 104.55, 111.96 110.5 M106.28 96.25 C108.87 100.72, 109.6 105.99, 112.1 109.51 M111.7 109.61 C111.7 109.61, 111.7 109.61, 111.7 109.61 M111.7 109.61 C111.7 109.61, 111.7 109.61, 111.7 109.61" stroke="#000000" stroke-width="1" fill="none"></path></g></g><mask></mask><g stroke-linecap="round"><g transform="translate(1990.6323577655899 913.8006451723159) rotate(0 44.84768136186483 -125.4550890091474)"><path d="M0.88 1.52 C34.31 -96.12, 68.56 -190.84, 90.32 -252.43 M-0.62 -0.22 C31.15 -92.55, 64.04 -184.5, 89.75 -251.37" stroke="#000000" stroke-width="1" fill="none"></path></g><g transform="translate(1990.6323577655899 913.8006451723159) rotate(0 44.84768136186483 -125.4550890091474)"><path d="M88.7 -251.18 L92.89 -234.8 L78.35 -239.2 L88.98 -251.33" stroke="none" stroke-width="0" fill="#000000" fill-rule="evenodd"></path><path d="M90.59 -249.92 C89.05 -247.2, 90.03 -241.36, 91.78 -236.86 M89.15 -251.58 C90.07 -246.16, 90.5 -239.97, 91.24 -235.85 M90.62 -235.23 C87.03 -238.43, 82.87 -238.35, 80.17 -242.04 M90.41 -236.47 C86.86 -238.62, 82.68 -239.83, 79.53 -240.82 M79.95 -240.32 C82.5 -242.66, 84.3 -244.19, 88.71 -250.83 M79.59 -240.57 C82.79 -244.05, 86.62 -249.29, 89.06 -250.93 M89.75 -251.37 C89.75 -251.37, 89.75 -251.37, 89.75 -251.37 M89.75 -251.37 C89.75 -251.37, 89.75 -251.37, 89.75 -251.37" stroke="#000000" stroke-width="1" fill="none"></path></g></g><mask></mask><g stroke-linecap="round" transform="translate(885.2804135318772 136.90970698459708) rotate(0 149.71069899527294 75.89500712954806)"><path d="M-0.42 0.48 C87.25 0.2, 171.89 -0.2, 299.46 0.92 M0.3 0.42 C104.96 1.66, 210.22 1.41, 299.83 0.38 M300.99 1.82 C296.8 34.27, 299.32 73.88, 297.71 153.65 M299.95 0.67 C299.37 36.5, 298.08 74.34, 299.66 151.79 M300.64 152.15 C203.48 150.04, 104.28 149.79, -0.57 150.37 M299.51 151.21 C217.59 149.4, 134.51 149.82, -0.42 152.33 M-0.29 153.54 C-0.81 101.36, -0.7 49.83, -1.17 -1.99 M-0.04 150.95 C0.89 103.73, 0.1 56.99, -0.61 -0.33" stroke="#1e1e1e" stroke-width="1" fill="none"></path></g><g transform="translate(897.2311637966814 177.80471411414516) rotate(0 137.75994873046872 35)"><text x="137.75994873046875" y="0" font-family="Virgil, Segoe UI Emoji" font-size="28px" fill="#1e1e1e" text-anchor="middle" style="white-space: pre;" direction="ltr" dominant-baseline="text-before-edge">1. Manual Export to</text><text x="137.75994873046875" y="35" font-family="Virgil, Segoe UI Emoji" font-size="28px" fill="#1e1e1e" text-anchor="middle" style="white-space: pre;" direction="ltr" dominant-baseline="text-before-edge"> docx</text></g><g stroke-linecap="round" transform="translate(1509.7044283420882 151.67177795076188) rotate(0 149.71069899527288 75.89500712954806)"><path d="M-0.4 -1.39 C85.44 -0.32, 171.76 -0.25, 298.9 -0.04 M-0.11 -0.52 C79.19 1.68, 158.82 1.64, 299.19 -0.35 M299.46 1.42 C300.85 39.88, 298.36 77.03, 300.65 151.13 M299.27 0.17 C299.71 55.33, 299.24 111.41, 300.1 151.37 M298.03 152.82 C196.96 155.06, 94.08 154, -1.12 151.96 M299.71 152.08 C208.97 151.26, 118.4 151.13, -0.62 152.14 M0.46 151.44 C0.17 118.85, -1.35 90.29, 0.91 -1.86 M-0.47 151.26 C0.55 98.85, 1.4 44.98, -0.86 -0.77" stroke="#1e1e1e" stroke-width="1" fill="none"></path></g><g transform="translate(1539.8971677426346 175.06678508030996) rotate(0 119.51795959472656 52.50000000000001)"><text x="119.51795959472656" y="0" font-family="Virgil, Segoe UI Emoji" font-size="28px" fill="#1e1e1e" text-anchor="middle" style="white-space: pre;" direction="ltr" dominant-baseline="text-before-edge">2. Convert to md</text><text x="119.51795959472656" y="35" font-family="Virgil, Segoe UI Emoji" font-size="28px" fill="#1e1e1e" text-anchor="middle" style="white-space: pre;" direction="ltr" dominant-baseline="text-before-edge">&amp; Clean</text><text x="119.51795959472656" y="70" font-family="Virgil, Segoe UI Emoji" font-size="28px" fill="#1e1e1e" text-anchor="middle" style="white-space: pre;" direction="ltr" dominant-baseline="text-before-edge">(pandoc + regex)</text></g><g stroke-linecap="round" transform="translate(2006.4297553870872 141.63254425779317) rotate(0 149.710698995273 75.89500712954806)"><path d="M-1.29 1.24 C60.62 -0.65, 121.97 -1.76, 300.64 -1.01 M0.69 0.44 C114.08 1.18, 226.42 0.14, 300.11 -0.2 M301.16 0.47 C299.45 48.32, 298.36 98.35, 299.77 152.17 M298.93 -0.4 C299.31 35.43, 298.72 71.32, 300.38 151.7 M299.59 152.78 C213.67 151.63, 131.46 152.33, -0.71 150.37 M300.14 151.66 C228.21 150.73, 157.72 151.29, -0.17 151.98 M-0.04 150.93 C1.96 99.45, -0.56 43.13, -0.08 1.57 M0.98 151.12 C-0.14 97.58, -1.1 42.8, -0.46 0.8" stroke="#1e1e1e" stroke-width="1" fill="none"></path></g><g transform="translate(2078.216481298864 200.02755138734125) rotate(0 77.9239730834961 17.5)"><text x="77.9239730834961" y="0" font-family="Virgil, Segoe UI Emoji" font-size="28px" fill="#1e1e1e" text-anchor="middle" style="white-space: pre;" direction="ltr" dominant-baseline="text-before-edge">2b. Combine</text></g><g stroke-linecap="round" transform="translate(2377.7065132874577 141.64073998157698) rotate(0 149.71069899527288 75.89500712954806)"><path d="M1.24 -0.19 C81.5 -1.06, 163.25 -0.03, 298.81 0.9 M0.38 0.42 C87.88 -1.3, 175.05 -0.41, 298.81 -0.65 M300.59 -1.63 C299.1 36.65, 298.53 71.93, 297.98 150.56 M298.55 -0.94 C300.03 35.55, 299.19 70.56, 299.17 151.5 M298.19 150.92 C179.71 153.11, 61.19 151.51, -0.22 153.18 M299.27 151.92 C180.78 150.91, 62.18 151.27, 0.16 151.35 M0.01 152.1 C0.4 113.41, 1.29 78.58, -0.63 -1.07 M-0.66 152.07 C-0.16 94.43, 0.61 38.1, 0.98 -0.48" stroke="#1e1e1e" stroke-width="1" fill="none"></path></g><g transform="translate(2387.0812595239413 182.53574711112503) rotate(0 140.33595275878906 35)"><text x="140.33595275878906" y="0" font-family="Virgil, Segoe UI Emoji" font-size="28px" fill="#1e1e1e" text-anchor="middle" style="white-space: pre;" direction="ltr" dominant-baseline="text-before-edge">3. Convert to HTML</text><text x="140.33595275878906" y="35" font-family="Virgil, Segoe UI Emoji" font-size="28px" fill="#1e1e1e" text-anchor="middle" style="white-space: pre;" direction="ltr" dominant-baseline="text-before-edge">(for Brevo)</text></g><g stroke-linecap="round" transform="translate(2784.4278619457555 141.256055042524) rotate(0 149.71069899527288 75.89500712954806)"><path d="M-0.05 -0.93 C61.84 -0.32, 124.78 -0.62, 300.07 0.02 M0.19 -0.53 C63.09 0.63, 126.57 1.44, 299.81 0.67 M300.11 0.97 C297.18 46.8, 297.24 91.58, 298.13 151.44 M298.53 -0.31 C299.35 38, 300.29 77.93, 299.11 152.05 M299.22 151.08 C186.75 152.06, 74.19 152.72, 0.84 152.24 M298.78 151.26 C211.86 153.6, 124.07 153.1, 0.56 152.07 M0.13 151.74 C-1.19 105.36, 0.68 60.3, 1.2 -0.99 M-0.94 152.33 C-0.94 99.81, 0.05 47.94, 0 0.74" stroke="#1e1e1e" stroke-width="1" fill="none"></path></g><g transform="translate(2799.528606107044 182.15106217207205) rotate(0 134.60995483398438 35)"><text x="134.60995483398438" y="0" font-family="Virgil, Segoe UI Emoji" font-size="28px" fill="#1e1e1e" text-anchor="middle" style="white-space: pre;" direction="ltr" dominant-baseline="text-before-edge">3. Upload to Brevo</text><text x="134.60995483398438" y="35" font-family="Virgil, Segoe UI Emoji" font-size="28px" fill="#1e1e1e" text-anchor="middle" style="white-space: pre;" direction="ltr" dominant-baseline="text-before-edge">✅</text></g><g stroke-linecap="round" transform="translate(3143.348958824202 142.38562458753304) rotate(0 149.71069899527288 75.89500712954806)"><path d="M0.77 1.44 C88.88 -3.11, 175.34 -1.59, 298.67 -1.36 M-0.09 -0.48 C101.17 -2.25, 203.68 -2.21, 299.97 0.46 M297.92 -1 C298.9 42.46, 298.82 89.33, 299.08 152.19 M299.94 0.59 C299.37 42.2, 300.45 84.86, 298.64 151.36 M298.2 151.05 C202.52 149.21, 104.33 150.1, -1.32 152.48 M299.23 151.24 C230.43 153.67, 160.57 153.41, 0.67 151.87 M1.32 150.06 C1.38 100.26, -0.28 49.86, -0.64 -0.84 M-0.07 152.45 C0.29 105.53, 1.33 60.89, 0.73 -0.44" stroke="#1e1e1e" stroke-width="1" fill="none"></path></g><g transform="translate(3151.0577199532636 200.78063171708112) rotate(0 142.00193786621094 17.5)"><text x="142.00193786621094" y="0" font-family="Virgil, Segoe UI Emoji" font-size="28px" fill="#1e1e1e" text-anchor="middle" style="white-space: pre;" direction="ltr" dominant-baseline="text-before-edge">4. Setup Automation</text></g><g stroke-linecap="round" transform="translate(367.2595923929812 138.49928234946944) rotate(0 149.71069899527294 75.89500712954806)"><path d="M0.44 1.41 C93.21 1.03, 186.4 -0.05, 298.44 0.73 M0.39 -0.06 C69.5 1.93, 139.31 1.76, 298.88 -0.72 M299.71 0.48 C301.35 44.22, 301.51 89.26, 301.01 153.07 M299.41 0.46 C300.03 39.82, 299.19 81.86, 299.13 152.37 M298.09 152.86 C215.12 149.49, 129.98 151.24, -1.45 152.16 M299.73 151.16 C211.58 149.99, 123.43 150.13, -0.46 152.06 M-1.65 150.66 C0.63 105.42, 1.03 57.85, 2 1.75 M0.06 152.72 C-1.65 94.51, -1.16 37.02, -0.02 0.33" stroke="#868e96" stroke-width="1" fill="none"></path></g><g transform="translate(455.51031519196505 196.89428947901752) rotate(0 61.45997619628906 17.5)"><text x="61.45997619628906" y="0" font-family="Virgil, Segoe UI Emoji" font-size="28px" fill="#868e96" text-anchor="middle" style="white-space: pre;" direction="ltr" dominant-baseline="text-before-edge">0. Draft</text></g><g transform="translate(28.085891674426648 189.6140986818876) rotate(0 38.58397674560547 17.5)"><text x="0" y="0" font-family="Virgil, Segoe UI Emoji" font-size="28px" fill="#000000" text-anchor="start" style="white-space: pre;" direction="ltr" dominant-baseline="text-before-edge">Steps</text></g><g transform="translate(23.615124026194962 509.0837612976097) rotate(0 56.3919677734375 17.5)"><text x="0" y="0" font-family="Virgil, Segoe UI Emoji" font-size="28px" fill="#000000" text-anchor="start" style="white-space: pre;" direction="ltr" dominant-baseline="text-before-edge">Outputs</text></g><g stroke-linecap="round"><g transform="translate(10 328.9668477059224) rotate(0 1660.6570399606471 0)"><path d="M0 0 C845.8 0, 1691.59 0, 3321.31 0 M0 0 C875.85 0, 1751.7 0, 3321.31 0" stroke="#000000" stroke-width="1" fill="none"></path></g></g><mask></mask><g stroke-linecap="round"><g transform="translate(1935.4570618595196 513.9518111888043) rotate(0 71.60033630515227 138.06151556702852)"><path d="M1.29 1.07 C33.08 67.01, 68.39 132.77, 143.86 275.85 M-0.66 -0.66 C45.36 89.81, 91.71 180, 143.16 276.78" stroke="#000000" stroke-width="1" fill="none"></path></g><g transform="translate(1935.4570618595196 513.9518111888043) rotate(0 71.60033630515227 138.06151556702852)"><path d="M144.4 276.61 L133.15 266.7 L143 260.22 L142.01 276.72" stroke="none" stroke-width="0" fill="#000000" fill-rule="evenodd"></path><path d="M144.52 277.9 C139.71 274.82, 137.77 272.09, 131.3 266.63 M142.47 276.09 C139.56 273.72, 134.85 270.2, 130.57 267.61 M131.48 268.95 C136.52 266.19, 140.76 262.26, 141.94 261.56 M130.74 267.65 C135.51 265.49, 139.69 263.78, 142.5 261.81 M142.53 262.45 C142.88 267.74, 143.93 271.3, 141.92 276.7 M141.78 261.77 C143.23 267.47, 143.38 273.31, 143.66 276.34 M143.16 276.78 C143.16 276.78, 143.16 276.78, 143.16 276.78 M143.16 276.78 C143.16 276.78, 143.16 276.78, 143.16 276.78" stroke="#000000" stroke-width="1" fill="none"></path></g></g><mask></mask><g stroke-linecap="round"><g transform="translate(1988.5042016201455 941.7699397142096) rotate(0 47.98155973342466 -65.58427788915418)"><path d="M-0.84 0.36 C23.77 -34.3, 48.05 -68.53, 96.38 -131.53 M0.3 -0.22 C36.18 -48.4, 71.82 -95.88, 96.8 -130.47" stroke="#000000" stroke-width="1" fill="none"></path></g><g transform="translate(1988.5042016201455 941.7699397142096) rotate(0 47.98155973342466 -65.58427788915418)"><path d="M98.74 -131.48 L94.46 -117.33 L82.5 -123.3 L96.7 -131.52" stroke="none" stroke-width="0" fill="#000000" fill-rule="evenodd"></path><path d="M96.17 -130.2 C96.48 -126.97, 95.53 -123.98, 94.3 -117.24 M97.03 -130.63 C95.01 -125.73, 93.84 -119.61, 94.62 -116.45 M94.68 -114.87 C90.92 -118.93, 86.32 -121.05, 84.66 -123.13 M93.93 -115.67 C90.37 -117.75, 86.91 -120.95, 83.89 -123.45 M83.91 -122.34 C89.14 -126.33, 91.28 -128.25, 98.09 -129.23 M84.05 -123.34 C87.71 -125.33, 91.68 -127.78, 96.26 -131.04 M96.8 -130.47 C96.8 -130.47, 96.8 -130.47, 96.8 -130.47 M96.8 -130.47 C96.8 -130.47, 96.8 -130.47, 96.8 -130.47" stroke="#000000" stroke-width="1" fill="none"></path></g></g><mask></mask><g mask="url(#mask-GQG7f9owExCT-22mVzl05)" stroke-linecap="round"><g transform="translate(2621.346029765721 620.4262566218822) rotate(0 129.91971282857128 -3.85798324783741)"><path d="M-0.77 -0.62 C93.41 -2.95, 188.12 -3.95, 260.18 -7.04 M-0.34 -0.31 C89.37 -0.41, 180.74 -3.27, 260.61 -7.4" stroke="#000000" stroke-width="1" fill="none"></path></g><g transform="translate(2621.346029765721 620.4262566218822) rotate(0 129.91971282857128 -3.85798324783741)"><path d="M260.15 -8.95 L249.13 -0.37 L246.58 -11.17 L260.91 -7.08" stroke="none" stroke-width="0" fill="#000000" fill-rule="evenodd"></path><path d="M259.89 -7.98 C255.74 -5.01, 251.98 -1.13, 246.98 -0.59 M260.29 -7.7 C255.34 -4.67, 252.01 -2.72, 247.38 -0.93 M248.42 0 C246.82 -3.24, 246.79 -7.11, 247.19 -13.52 M246.95 -0.45 C246.9 -5.11, 247.46 -8.55, 247.37 -13.31 M245.37 -13.54 C250.24 -10.46, 251.14 -12.07, 261.12 -7.51 M246.21 -13.78 C249.74 -12.06, 254.29 -10, 261.16 -7.58 M260.61 -7.4 C260.61 -7.4, 260.61 -7.4, 260.61 -7.4 M260.61 -7.4 C260.61 -7.4, 260.61 -7.4, 260.61 -7.4" stroke="#000000" stroke-width="1" fill="none"></path></g></g><mask id="mask-GQG7f9owExCT-22mVzl05"><rect x="0" y="0" fill="#fff" width="2981.8830901322917" height="727.3312273455441"></rect><rect x="2726.446583569612" y="606.9737712600513" fill="#000" width="50.33595275878906" height="20" opacity="1"></rect></mask><g transform="translate(2726.446583569612 606.9737712600513) rotate(0 24.81915902468029 9.594502113993542)"><text x="25.16797637939453" y="0" font-family="Virgil, Segoe UI Emoji" font-size="16px" fill="#000000" text-anchor="middle" style="white-space: pre;" direction="ltr" dominant-baseline="text-before-edge">upsert</text></g><g mask="url(#mask-KquOlz4ZFra75ZR30aZAh)" stroke-linecap="round"><g transform="translate(1100.8264259119962 468.16017346820774) rotate(0 79.5170695910843 35.005371431119784)"><path d="M-0.78 -1.31 C58.37 25.1, 114.81 49.73, 157.89 71.32 M0.53 0.08 C57.54 25.58, 113.65 51.49, 159.81 70.36" stroke="#000000" stroke-width="1" fill="none"></path></g><g transform="translate(1100.8264259119962 468.16017346820774) rotate(0 79.5170695910843 35.005371431119784)"><path d="M158.38 68.72 L143.6 71.68 L148.18 57.9 L160.12 70.04" stroke="none" stroke-width="0" fill="#000000" fill-rule="evenodd"></path><path d="M159.23 69.38 C155.27 70.53, 149.16 70.14, 143.97 71.55 M160.21 70.42 C155.15 70, 149.7 70.91, 145.41 70.83 M143.78 71.35 C147.55 66.04, 148.75 62.45, 150.3 59.88 M145.3 70.37 C146.93 66.96, 148.07 63.35, 150.11 59.19 M151.05 59.39 C151.58 62.32, 155.02 64.76, 159.67 70.74 M149.34 59.24 C152.91 62.17, 155.14 65.3, 159.91 70.89 M159.81 70.36 C159.81 70.36, 159.81 70.36, 159.81 70.36 M159.81 70.36 C159.81 70.36, 159.81 70.36, 159.81 70.36" stroke="#000000" stroke-width="1" fill="none"></path></g></g><mask id="mask-KquOlz4ZFra75ZR30aZAh"><rect x="0" y="0" fill="#fff" width="1359.8576933125773" height="638.5859431143905"></rect><rect x="1154.3260760307437" y="493.3730582912991" fill="#000" width="52.03196716308594" height="20" opacity="1"></rect></mask><g transform="translate(1154.326076030744 493.3730582912991) rotate(0 26.017419472336826 9.792486608028412)"><text x="26.01598358154297" y="0" font-family="Virgil, Segoe UI Emoji" font-size="16px" fill="#000000" text-anchor="middle" style="white-space: pre;" direction="ltr" dominant-baseline="text-before-edge">pandoc</text></g><g stroke-linecap="round"><g transform="translate(1627.9709535391569 559.8867658754109) rotate(0 26.1917784422493 -10.319919445529564)"><path d="M0.62 1.85 C14.25 -8.32, 32.56 -13.73, 51 -22.49 M0.98 0.48 C14.8 -6.98, 28.32 -12.23, 51.77 -21.69" stroke="#000000" stroke-width="1" fill="none"></path></g><g transform="translate(1627.9709535391569 559.8867658754109) rotate(0 26.1917784422493 -10.319919445529564)"><path d="M52.72 -23.34 L42.43 -9.12 L38.73 -20.95 L51.89 -23.04" stroke="none" stroke-width="0" fill="#000000" fill-rule="evenodd"></path><path d="M52.23 -20.3 C47.52 -19.26, 46.37 -14.95, 41.45 -11.26 M52.5 -21.34 C49.71 -19.26, 46.45 -15.67, 42.03 -10.66 M42.73 -10.48 C40.42 -14.6, 38.87 -17.73, 36.75 -22.46 M41.41 -10.75 C40.17 -14.76, 37.51 -19.49, 36.69 -23.05 M37.85 -22.59 C41.6 -21.04, 47.47 -20.58, 52.31 -21.76 M36.11 -22.63 C40.75 -22.36, 45.89 -21.88, 51.12 -21.5 M51.77 -21.69 C51.77 -21.69, 51.77 -21.69, 51.77 -21.69 M51.77 -21.69 C51.77 -21.69, 51.77 -21.69, 51.77 -21.69" stroke="#000000" stroke-width="1" fill="none"></path></g></g><mask></mask><g stroke-linecap="round"><g transform="translate(1621.8219782133144 607.5565153770418) rotate(0 31.029919505354997 44.235721094696885)"><path d="M1.74 -0.96 C18.17 24.59, 34.08 51.14, 62.72 89.43 M-0.66 0.21 C19.83 29.22, 40.52 58.78, 61.36 87.87" stroke="#000000" stroke-width="1" fill="none"></path></g><g transform="translate(1621.8219782133144 607.5565153770418) rotate(0 31.029919505354997 44.235721094696885)"><path d="M61.51 88.6 L49.33 78.79 L59.89 72.62 L62.4 87.48" stroke="none" stroke-width="0" fill="#000000" fill-rule="evenodd"></path><path d="M62.67 87.15 C58.78 85.7, 53.85 84.82, 49.06 81.78 M60.87 88.03 C56.31 85.25, 51.86 82.81, 48.04 80.61 M48.88 80.93 C51.55 79.01, 53.07 78.4, 57.99 73.72 M48.94 80.4 C51.34 77.86, 54.59 75.87, 59.13 73.65 M57.41 73.79 C60.66 78.66, 61.36 81.39, 60.36 87.04 M59.09 73.04 C59.09 78.38, 60.96 84.14, 61.01 87.94 M61.36 87.87 C61.36 87.87, 61.36 87.87, 61.36 87.87 M61.36 87.87 C61.36 87.87, 61.36 87.87, 61.36 87.87" stroke="#000000" stroke-width="1" fill="none"></path></g></g><mask></mask><g mask="url(#mask-DJyZs7SiczASz8_E5BpaT)" stroke-linecap="round"><g transform="translate(1397.7051268968573 567.8472361196673) rotate(0 44.833381730406586 1.1341074148104724)"><path d="M-0.45 0.84 C23.08 -2.09, 45.14 1.45, 90.12 2.7 M0.53 -0.43 C26.18 1.44, 53.9 0.61, 88.22 1.78" stroke="#000000" stroke-width="1" fill="none"></path></g><g transform="translate(1397.7051268968573 567.8472361196673) rotate(0 44.833381730406586 1.1341074148104724)"><path d="M89.97 3.38 L72.95 9.73 L72.94 -5.1 L87.67 3.31" stroke="none" stroke-width="0" fill="#000000" fill-rule="evenodd"></path><path d="M87.88 2.41 C85.53 2.18, 82.04 6.13, 75.94 8.97 M88.61 1.46 C83.36 4, 79.69 4.96, 74.52 8.28 M73.47 7.39 C73.86 3.02, 74.18 -2.54, 74.63 -3.63 M74.9 7.69 C74.54 3.73, 74.26 -0.91, 75.31 -5.22 M74.88 -4.31 C78.85 -4.44, 82.28 -1.94, 89 1.49 M74.65 -4.33 C76.77 -3.51, 80.35 -1.8, 88.87 1.48 M88.22 1.78 C88.22 1.78, 88.22 1.78, 88.22 1.78 M88.22 1.78 C88.22 1.78, 88.22 1.78, 88.22 1.78" stroke="#000000" stroke-width="1" fill="none"></path></g></g><mask id="mask-DJyZs7SiczASz8_E5BpaT"><rect x="0" y="0" fill="#fff" width="1585.8769478117797" height="669.016503156043"></rect><rect x="1421.0950534675997" y="558.431869637855" fill="#000" width="41.3919677734375" height="20" opacity="1"></rect></mask><g transform="translate(1421.0950534675999 558.431869637855) rotate(0 21.443455159664154 10.549473896622686)"><text x="20.69598388671875" y="0" font-family="Virgil, Segoe UI Emoji" font-size="16px" fill="#000000" text-anchor="middle" style="white-space: pre;" direction="ltr" dominant-baseline="text-before-edge">regex</text></g><g stroke-linecap="round"><g transform="translate(1800.585573012786 548.0517765148331) rotate(0 143.17442202875839 44.79012124237423)"><path d="M-0.67 -0.05 C112.64 34.97, 223.7 68.95, 287.02 88.95 M0.36 0.41 C58.71 19.83, 115.8 37.8, 286.4 89.63" stroke="#000000" stroke-width="1" fill="none"></path></g><g transform="translate(1800.585573012786 548.0517765148331) rotate(0 143.17442202875839 44.79012124237423)"><path d="M287.01 90.54 L271.26 92.32 L276.01 78.38 L287.38 91.42" stroke="none" stroke-width="0" fill="#000000" fill-rule="evenodd"></path><path d="M285.7 89.58 C282.02 91.29, 275.8 90.99, 271.87 90.45 M286.77 90.05 C284.1 89.87, 280.63 90.14, 271.22 91.15 M271.85 90.77 C271.52 88.49, 274.33 84.67, 276.24 79.59 M271.17 92.21 C272.56 87.33, 273.66 83.26, 274.78 79.52 M275.88 80.66 C276.64 81.36, 280.93 84.79, 284.95 90.58 M275.03 80.07 C278.35 82.24, 281.77 85.59, 286.04 90.34 M286.4 89.63 C286.4 89.63, 286.4 89.63, 286.4 89.63 M286.4 89.63 C286.4 89.63, 286.4 89.63, 286.4 89.63" stroke="#000000" stroke-width="1" fill="none"></path></g></g><mask></mask><g stroke-linecap="round"><g transform="translate(1805.6184493397052 714.6430475685381) rotate(0 139.16662088602538 44.88541159891457)"><path d="M-1.44 0.94 C66.71 21.94, 134.7 42.44, 279.77 89.06 M-0.35 0.71 C85.06 24.25, 169.76 51.51, 278.52 88.75" stroke="#000000" stroke-width="1" fill="none"></path></g><g transform="translate(1805.6184493397052 714.6430475685381) rotate(0 139.16662088602538 44.88541159891457)"><path d="M277.96 88.07 L262.7 91.57 L265.71 78.78 L280.02 87.15" stroke="none" stroke-width="0" fill="#000000" fill-rule="evenodd"></path><path d="M277.07 89.7 C274.37 89.64, 271.52 89.13, 264.57 90.71 M278.17 89.46 C273.82 88.75, 269.32 89.57, 263.31 90.4 M264.81 90.8 C265.9 87.5, 265.81 84.74, 267.25 77.47 M264.15 90.73 C264.91 87.69, 265.65 84.56, 267.9 78.02 M268.81 79.06 C272.61 80.69, 274.21 87.03, 279.53 88.88 M268.38 79.01 C270.74 80.96, 274.05 84.46, 278.36 88.91 M278.52 88.75 C278.52 88.75, 278.52 88.75, 278.52 88.75 M278.52 88.75 C278.52 88.75, 278.52 88.75, 278.52 88.75" stroke="#000000" stroke-width="1" fill="none"></path></g></g><mask></mask><g transform="translate(1040.4704272181802 1024.8755199032666) rotate(0 72.28311837529304 12.54916313376799)"><text x="0" y="0" font-family="Virgil, Segoe UI Emoji" font-size="20.078661014028793px" fill="#000000" text-anchor="start" style="white-space: pre;" direction="ltr" dominant-baseline="text-before-edge">Image storage</text></g><g stroke-linecap="round"><g transform="translate(1198.264185846304 1019.8737617482648) rotate(0 24.007552488872363 26.819014865914085)" fill-rule="evenodd"><path d="M-1.91 1.17 L-0.77 52.73 L12.63 56.62 L26.38 59.77 L38.75 58.3 L47.38 54.53 L49.57 -0.02 L42.93 -2.15 L25.45 -5.31 L8.2 -1.62 L-1.53 1.73" stroke="none" stroke-width="0" fill="#228be6" fill-rule="evenodd"></path><path d="M0.02 0.22 C-0.01 8.33, -0.82 39.47, -0.99 48.45 C-1.15 57.44, -1.74 52.96, -0.98 54.14 C-0.22 55.32, 1.66 54.91, 3.57 55.52 C5.48 56.12, 6.84 57.48, 10.48 57.78 C14.13 58.09, 20.7 57.46, 25.44 57.36 C30.19 57.25, 35.4 57.47, 38.94 57.16 C42.47 56.85, 45 56.17, 46.65 55.51 C48.3 54.85, 48.55 54.34, 48.83 53.2 C49.11 52.05, 48.35 56.83, 48.35 48.63 C48.36 40.44, 48.87 12.32, 48.87 4.01 C48.87 -4.31, 48.97 -0.15, 48.38 -1.26 C47.78 -2.36, 46.71 -2.29, 45.28 -2.61 C43.85 -2.93, 43.37 -2.78, 39.78 -3.2 C36.2 -3.61, 28.34 -5.05, 23.78 -5.12 C19.22 -5.19, 15.93 -4.13, 12.41 -3.59 C8.88 -3.04, 4.52 -2.39, 2.64 -1.86 C0.76 -1.32, 1.47 -0.55, 1.12 -0.38 C0.77 -0.2, 0.54 -1.04, 0.54 -0.82 M-1.42 -0.71 C-1.03 7.09, 0.66 37.94, 1.13 46.79 C1.59 55.64, 1.46 50.74, 1.39 52.4 C1.32 54.05, -1.1 55.71, 0.72 56.71 C2.53 57.72, 7.97 57.92, 12.27 58.42 C16.58 58.91, 22.12 60.09, 26.57 59.67 C31.03 59.26, 35.28 56.59, 38.99 55.92 C42.7 55.25, 47.43 56.29, 48.81 55.65 C50.19 55.02, 47.26 53.33, 47.28 52.12 C47.29 50.91, 48.57 56.24, 48.91 48.38 C49.25 40.53, 49.64 12.83, 49.31 5 C48.99 -2.82, 47.59 2.83, 46.96 1.42 C46.33 0.01, 46.74 -2.74, 45.53 -3.48 C44.31 -4.22, 43.23 -2.65, 39.68 -3.03 C36.12 -3.4, 29.1 -5.3, 24.2 -5.73 C19.29 -6.16, 13.98 -6.39, 10.22 -5.6 C6.47 -4.81, 3.31 -1.91, 1.68 -1.01 C0.05 -0.11, 0.82 -0.19, 0.44 -0.19 C0.07 -0.19, -0.24 -0.96, -0.56 -1" stroke="#0a11d3" stroke-width="1" fill="none"></path></g></g><mask></mask><g stroke-linecap="round"><g transform="translate(1198.6442609933015 1055.9758008903773) rotate(0 23.954474961489723 3.5903816895382192)"><path d="M-1.15 0.87 C-1.1 1.38, -1.21 2.75, 0.29 3.3 C1.8 3.85, 5.7 3.78, 7.89 4.15 C10.09 4.52, 10.57 5.46, 13.46 5.53 C16.36 5.6, 21.13 4.73, 25.25 4.59 C29.36 4.45, 34.65 4.97, 38.15 4.68 C41.66 4.38, 44.44 3.57, 46.26 2.84 C48.08 2.12, 48.69 0.79, 49.05 0.34 M0.45 0.28 C0.86 0.47, 1.28 0.9, 2.49 1.77 C3.69 2.65, 5.88 4.71, 7.69 5.56 C9.49 6.41, 10.07 7.02, 13.31 6.88 C16.56 6.73, 22.88 5.2, 27.15 4.67 C31.43 4.15, 35.76 4.19, 38.97 3.74 C42.19 3.29, 44.9 2.55, 46.43 1.98 C47.96 1.41, 47.52 0.81, 48.15 0.3" stroke="#0a11d3" stroke-width="1" fill="none"></path></g></g><mask></mask><g stroke-linecap="round"><g transform="translate(1198.039478921789 1037.6875166029095) rotate(0 23.788668756749757 2.945290919147169)"><path d="M-0.99 1.14 C-0.41 1.38, 1.17 1.79, 2.35 2.34 C3.53 2.88, 4.19 4.07, 6.08 4.43 C7.97 4.79, 10.58 4.33, 13.68 4.49 C16.78 4.64, 20.54 5.22, 24.66 5.37 C28.77 5.52, 34.59 5.86, 38.38 5.39 C42.17 4.91, 45.71 3.39, 47.39 2.51 C49.06 1.64, 48.15 0.59, 48.43 0.13 M0.69 0.69 C1.31 1.08, 0.64 3.69, 1.96 3.97 C3.27 4.24, 6.63 2.11, 8.58 2.33 C10.53 2.55, 10.7 4.7, 13.65 5.29 C16.59 5.88, 21.98 5.95, 26.25 5.87 C30.53 5.8, 35.67 5.56, 39.32 4.83 C42.97 4.09, 46.83 2.28, 48.15 1.47 C49.46 0.67, 47.3 0.51, 47.19 -0.01" stroke="#0a11d3" stroke-width="1" fill="none"></path></g></g><mask></mask><g stroke-linecap="round" transform="translate(1197.4197223719457 1015.4365228266686) rotate(0 24.233147968049195 4.900971863079974)"><path d="M16.19 0.93 C20.93 0.64, 28.62 0.15, 33.5 0.44 C38.38 0.74, 43.16 1.66, 45.45 2.67 C47.75 3.67, 48.41 5.43, 47.26 6.48 C46.11 7.53, 42.6 8.52, 38.55 8.96 C34.49 9.4, 27.83 9.03, 22.92 9.13 C18.02 9.23, 12.85 10.14, 9.13 9.54 C5.41 8.94, 1.62 6.79, 0.61 5.53 C-0.39 4.27, 0.37 2.98, 3.12 1.99 C5.86 1.01, 14.36 0.04, 17.09 -0.38 C19.81 -0.81, 19.23 -0.83, 19.44 -0.53 M15.63 -0.7 C20.23 -0.95, 28.1 0.57, 33.22 0.9 C38.33 1.24, 43.89 0.28, 46.32 1.3 C48.76 2.32, 48.75 5.79, 47.83 7.02 C46.91 8.25, 44.5 8.14, 40.78 8.68 C37.06 9.23, 30.92 10.52, 25.53 10.29 C20.13 10.06, 12.69 7.95, 8.44 7.31 C4.19 6.67, 0.77 7.18, 0.04 6.46 C-0.68 5.73, 1.22 4.13, 4.07 2.96 C6.91 1.78, 14.9 -0.22, 17.11 -0.61 C19.32 -0.99, 17.48 0.44, 17.31 0.64" stroke="none" stroke-width="0" fill="#fff"></path><path d="M16.26 -0.7 C20.82 -1.12, 28.46 -0.97, 33.49 -0.39 C38.51 0.19, 43.91 1.79, 46.39 2.79 C48.88 3.79, 49.58 4.56, 48.42 5.59 C47.27 6.62, 43.64 8.26, 39.47 8.96 C35.3 9.66, 28.79 9.86, 23.4 9.8 C18.01 9.74, 11 9.12, 7.13 8.57 C3.25 8.03, 0.64 7.55, 0.17 6.53 C-0.31 5.51, 0.69 3.41, 4.26 2.44 C7.83 1.47, 17.75 1.04, 21.59 0.73 C25.42 0.42, 27.2 0.46, 27.28 0.59 M22.11 1.18 C26.59 1.29, 31.53 1.45, 35.54 1.61 C39.54 1.77, 44.09 1.36, 46.13 2.13 C48.18 2.89, 49.48 4.77, 47.79 6.18 C46.1 7.59, 40.93 9.84, 36.02 10.59 C31.11 11.34, 23.61 11.05, 18.33 10.71 C13.05 10.37, 7.29 9.45, 4.34 8.54 C1.4 7.63, 0.34 6.29, 0.67 5.28 C1 4.27, 2.75 3.39, 6.32 2.48 C9.9 1.58, 19.45 0.01, 22.12 -0.17 C24.78 -0.35, 22.67 1.06, 22.3 1.39" stroke="#0a11d3" stroke-width="1" fill="none"></path></g><g stroke-linecap="round" transform="translate(1236.960878629751 1029.0256614021162) rotate(0 3.551600129449753 3.8545733649824)"><path d="M3.39 0.22 C4.11 -0.09, 4.78 0.11, 5.22 0.57 C5.67 1.04, 5.93 2.23, 6.06 3.01 C6.18 3.79, 6.23 4.68, 5.97 5.25 C5.72 5.82, 4.9 5.86, 4.55 6.42 C4.2 6.98, 4.42 8.62, 3.87 8.61 C3.32 8.59, 1.95 7.15, 1.26 6.33 C0.56 5.5, -0.17 4.55, -0.32 3.65 C-0.47 2.76, -0.32 1.68, 0.35 0.95 C1.03 0.22, 3.2 -0.7, 3.73 -0.72 C4.26 -0.74, 3.74 0.58, 3.51 0.81 M4.07 0.65 C5 0.5, 6.3 -1.04, 6.73 -0.47 C7.15 0.09, 6.49 3.07, 6.64 4.05 C6.78 5.04, 7.66 4.81, 7.59 5.43 C7.51 6.05, 7.06 7.65, 6.18 7.78 C5.31 7.91, 3.3 6.39, 2.32 6.23 C1.35 6.07, 0.57 7.18, 0.34 6.82 C0.11 6.47, 0.62 5.19, 0.96 4.11 C1.3 3.02, 1.77 0.94, 2.38 0.3 C2.98 -0.34, 4.52 0.33, 4.57 0.26 C4.63 0.19, 2.95 -0.02, 2.69 -0.1" stroke="none" stroke-width="0" fill="#fff"></path><path d="M2.94 -0.65 C3.84 -0.69, 5.21 0.17, 5.94 0.61 C6.67 1.06, 7.09 1.27, 7.31 2.03 C7.53 2.79, 7.57 4.35, 7.26 5.19 C6.96 6.03, 6.33 6.68, 5.49 7.1 C4.65 7.52, 2.99 7.65, 2.22 7.71 C1.45 7.76, 1.15 8.01, 0.88 7.42 C0.6 6.83, 0.61 5.05, 0.58 4.18 C0.54 3.31, 0.09 2.84, 0.64 2.23 C1.19 1.61, 3.33 0.67, 3.86 0.48 C4.4 0.28, 4.01 0.98, 3.86 1.04 M0.93 1.1 C1.18 0.4, 2.55 -1.05, 3.68 -1 C4.81 -0.94, 7.07 0.27, 7.68 1.42 C8.29 2.57, 7.82 4.85, 7.34 5.92 C6.87 6.99, 5.61 7.44, 4.83 7.84 C4.05 8.23, 3.15 8.4, 2.66 8.31 C2.17 8.23, 2.31 7.81, 1.91 7.32 C1.5 6.82, 0.24 6.28, 0.23 5.34 C0.22 4.41, 1.26 2.33, 1.87 1.69 C2.47 1.04, 3.96 1.48, 3.85 1.47 C3.75 1.45, 1.4 1.96, 1.24 1.59" stroke="#0a11d3" stroke-width="1" fill="none"></path></g><g stroke-linecap="round" transform="translate(1236.960878629751 1045.9472239780625) rotate(0 3.551600129449753 3.8545733649824)"><path d="M4.74 0.35 C5.21 0.65, 5.6 1.78, 5.82 2.51 C6.05 3.23, 6.23 4.11, 6.09 4.7 C5.95 5.3, 5.24 5.43, 4.96 6.08 C4.68 6.74, 4.94 8.53, 4.39 8.64 C3.84 8.74, 2.41 7.45, 1.64 6.71 C0.86 5.97, 0.01 5.09, -0.25 4.21 C-0.51 3.33, -0.47 2.2, 0.07 1.42 C0.61 0.63, 2.11 -0.45, 2.97 -0.5 C3.84 -0.56, 5 0.85, 5.27 1.08 C5.55 1.31, 4.73 0.95, 4.63 0.88 M3.61 -0.88 C4.06 -1.07, 3.85 1.08, 4.49 1.57 C5.12 2.05, 6.82 1.44, 7.41 2.03 C8.01 2.61, 8.4 4.48, 8.07 5.05 C7.73 5.62, 6.2 4.9, 5.38 5.45 C4.56 6, 3.67 8.06, 3.14 8.36 C2.61 8.66, 2.48 8.04, 2.2 7.24 C1.92 6.44, 1.51 4.42, 1.47 3.56 C1.42 2.71, 1.87 2.71, 1.94 2.12 C2.02 1.53, 1.88 0.43, 1.93 0.01 C1.98 -0.41, 1.9 -0.24, 2.24 -0.38" stroke="none" stroke-width="0" fill="#fff"></path><path d="M2.71 0.6 C3.39 0.28, 4.18 -0.42, 4.85 -0.23 C5.51 -0.04, 6.33 1.02, 6.71 1.74 C7.09 2.45, 7.35 3.27, 7.11 4.07 C6.87 4.86, 5.79 5.76, 5.26 6.52 C4.72 7.28, 4.42 8.51, 3.91 8.63 C3.4 8.75, 2.82 7.71, 2.18 7.22 C1.54 6.73, 0.28 6.41, 0.07 5.68 C-0.14 4.94, 0.53 3.54, 0.91 2.8 C1.29 2.07, 2.13 1.6, 2.34 1.25 C2.56 0.9, 2.3 0.66, 2.18 0.71 M3.74 -0.97 C4.85 -0.96, 7.12 0.32, 7.72 1.48 C8.31 2.65, 7.82 4.93, 7.33 6 C6.84 7.06, 5.57 7.5, 4.78 7.88 C3.99 8.27, 3.08 8.41, 2.59 8.31 C2.1 8.21, 2.25 7.78, 1.85 7.27 C1.46 6.76, 0.21 6.21, 0.22 5.27 C0.23 4.33, 1.28 2.26, 1.9 1.62 C2.52 0.99, 3.62 1.45, 3.92 1.44 C4.22 1.43, 3.49 1.97, 3.71 1.56 C3.92 1.16, 5.19 -0.7, 5.19 -0.97" stroke="#0a11d3" stroke-width="1" fill="none"></path></g><g stroke-linecap="round" transform="translate(1236.960878629751 1064.338714117789) rotate(0 3.551600129449753 3.8545733649824)"><path d="M3 0.66 C3.56 0.67, 4.5 0.97, 5.03 1.32 C5.55 1.67, 5.77 1.82, 6.15 2.75 C6.52 3.68, 7.49 6.14, 7.28 6.91 C7.06 7.69, 5.78 7.39, 4.87 7.4 C3.96 7.42, 2.62 7.4, 1.81 7 C1 6.59, 0.17 5.79, 0.01 4.99 C-0.16 4.19, 0.53 2.78, 0.81 2.19 C1.08 1.6, 1.14 1.77, 1.66 1.48 C2.19 1.19, 3.36 0.6, 3.96 0.46 C4.55 0.33, 5.24 0.54, 5.23 0.66 M3.97 1.4 C4.61 1.71, 6.42 1.03, 7.12 1.54 C7.81 2.05, 8.35 3.89, 8.12 4.47 C7.9 5.06, 6.51 4.41, 5.77 5.05 C5.03 5.69, 4.2 7.9, 3.68 8.32 C3.15 8.75, 2.98 8.28, 2.63 7.58 C2.28 6.89, 1.75 4.95, 1.59 4.13 C1.44 3.31, 1.73 3.29, 1.71 2.64 C1.68 2, 1.04 0.78, 1.44 0.25 C1.85 -0.29, 3.42 -0.34, 4.13 -0.59 C4.85 -0.85, 5.7 -1.44, 5.75 -1.28" stroke="none" stroke-width="0" fill="#fff"></path><path d="M2.74 -0.06 C3.32 -0.4, 4.35 0.08, 5 0.39 C5.64 0.71, 6.4 1.16, 6.59 1.84 C6.79 2.52, 6.3 3.48, 6.18 4.45 C6.05 5.43, 6.16 7.12, 5.84 7.69 C5.51 8.25, 4.98 7.86, 4.22 7.85 C3.45 7.83, 1.84 8.03, 1.26 7.57 C0.67 7.11, 0.81 5.85, 0.7 5.09 C0.59 4.32, 0.31 3.72, 0.58 2.97 C0.85 2.23, 2.02 0.92, 2.3 0.59 C2.58 0.27, 2.07 1.22, 2.26 1.05 M5.62 -0.37 C6.56 0.25, 6.74 2.17, 6.82 3.12 C6.9 4.07, 6.38 4.63, 6.09 5.32 C5.81 6.02, 5.39 6.78, 5.11 7.27 C4.83 7.75, 4.99 8.14, 4.4 8.23 C3.82 8.32, 2.09 8.4, 1.6 7.78 C1.12 7.17, 1.43 5.25, 1.47 4.52 C1.52 3.78, 1.95 3.84, 1.88 3.36 C1.8 2.87, 0.5 2.36, 1.01 1.61 C1.52 0.86, 4.51 -0.81, 4.94 -1.14 C5.37 -1.48, 3.75 -0.67, 3.56 -0.42" stroke="#0a11d3" stroke-width="1" fill="none"></path></g><g mask="url(#mask-O5DHxIalJHtyQkqcGvrAf)" stroke-linecap="round"><g transform="translate(2088.536784364626 900.543304143644) rotate(0 -407.92203715388644 144.78685910349304)"><path d="M-0.2 0.77 C-314.23 109.01, -629.68 220.18, -815.64 288.81" stroke="#000000" stroke-width="1.5" fill="none" stroke-dasharray="1.5 7"></path></g><g transform="translate(2088.536784364626 900.543304143644) rotate(0 -407.92203715388644 144.78685910349304)"><path d="M-815.41 290.19 L-806.98 279.22 L-801.4 288.94 L-814.25 288.7" stroke="none" stroke-width="0" fill="#000000" fill-rule="evenodd"></path><path d="M-816.02 290.24 C-811.99 284.44, -808.47 279.65, -803.89 278.05 M-806.14 279.19 C-802.16 282.03, -801.26 287.8, -800.39 289.46 M-800.13 290.69 C-805.7 290.41, -809.24 289.91, -814.87 289.45 M-815.64 288.81 C-815.64 288.81, -815.64 288.81, -815.64 288.81" stroke="#000000" stroke-width="1.5" fill="none"></path></g></g><mask id="mask-O5DHxIalJHtyQkqcGvrAf"><rect x="0" y="0" fill="#fff" width="3004.783433259267" height="1289.43913963159"></rect><rect x="1324.3537675344928" y="994.991221887617" fill="#000" width="712.119384765625" height="100" opacity="1"></rect></mask><g transform="translate(1324.3537675344928 994.991221887617) rotate(0 356.2609796762466 50.33894135952005)"><text x="356.0596923828125" y="0" font-family="Virgil, Segoe UI Emoji" font-size="20px" fill="#000000" text-anchor="middle" style="white-space: pre;" direction="ltr" dominant-baseline="text-before-edge">Upload image and replace??? Not sure if needed. Only in case where we </text><text x="356.0596923828125" y="25" font-family="Virgil, Segoe UI Emoji" font-size="20px" fill="#000000" text-anchor="middle" style="white-space: pre;" direction="ltr" dominant-baseline="text-before-edge">don't have image links in gdoc.</text><text x="356.0596923828125" y="50" font-family="Virgil, Segoe UI Emoji" font-size="20px" fill="#000000" text-anchor="middle" style="white-space: pre;" direction="ltr" dominant-baseline="text-before-edge"></text><text x="356.0596923828125" y="75" font-family="Virgil, Segoe UI Emoji" font-size="20px" fill="#000000" text-anchor="middle" style="white-space: pre;" direction="ltr" dominant-baseline="text-before-edge">IGNORE FOR NOw</text></g><g mask="url(#mask-QnCPcKCisA4O0N98_BmNO)" stroke-linecap="round"><g transform="translate(528.4366997832049 573.8699607846015) rotate(0 264.534579232358 310.74925198631433)"><path d="M-0.98 0.11 C0.98 83.04, -82 395.03, 11.83 498.58 C105.67 602.12, 470.47 601.08, 562.05 621.39" stroke="#000000" stroke-width="1.5" fill="none" stroke-dasharray="8 9"></path></g><g transform="translate(528.4366997832049 573.8699607846015) rotate(0 264.534579232358 310.74925198631433)"><path d="M563.63 622.55 L547.13 624.25 L547.77 613.88 L563.79 622.71" stroke="none" stroke-width="0" fill="#000000" fill-rule="evenodd"></path><path d="M562.18 621.51 C557.55 622.42, 553.5 622.95, 546.77 625.98 M547.33 625.4 C549.37 623.16, 548.34 618.37, 550.16 614.49 M549.34 613.64 C553.33 615.03, 555.74 617.36, 561.49 620.48 M562.05 621.39 C562.05 621.39, 562.05 621.39, 562.05 621.39" stroke="#000000" stroke-width="1.5" fill="none"></path></g></g><mask id="mask-QnCPcKCisA4O0N98_BmNO"><rect x="0" y="0" fill="#fff" width="1190.7351880170913" height="1295.1961562884114"></rect><rect x="364.5909529304939" y="1060.1062111641224" fill="#000" width="351.17974853515625" height="25" opacity="1"></rect></mask><g transform="translate(364.59095293049387 1060.1062111641222) rotate(0 428.38032608506893 -175.48699839320648)"><text x="175.58987426757812" y="0" font-family="Virgil, Segoe UI Emoji" font-size="20px" fill="#000000" text-anchor="middle" style="white-space: pre;" direction="ltr" dominant-baseline="text-before-edge">Upload images and add link to gdoc</text></g><g stroke-linecap="round" transform="translate(1108.7353247422107 1139.4314867565645) rotate(0 72.70159571191886 49.15164041826216)"><path d="M1.34 1.97 L145.41 -0.12 L147.02 98.32 L1.95 96.89" stroke="none" stroke-width="0" fill="#69db7c"></path><path d="M1.16 -1.07 C36.76 1.93, 68.35 -0.61, 144.34 -0.19 M143.6 0.48 C148.03 24.54, 145.48 48.26, 146.29 99.01 M145.75 97.19 C110.89 97.19, 75.27 100.19, -0.24 99.89 M1.69 97.17 C1.87 72.7, 0.61 48.02, -0.56 1.53" stroke="#1e1e1e" stroke-width="1.5" fill="none" stroke-dasharray="8 9"></path></g><g transform="translate(1134.9169619580357 1178.5831271748264) rotate(0 46.51995849609375 10)"><text x="46.51995849609375" y="0" font-family="Virgil, Segoe UI Emoji" font-size="16px" fill="#1e1e1e" text-anchor="middle" style="white-space: pre;" direction="ltr" dominant-baseline="text-before-edge">my-image.png</text></g><g stroke-linecap="round"><g transform="translate(2204.2996432222526 641.396074862515) rotate(0 142.4301388612571 -2.448048163119637)"><path d="M1.12 0.72 C75.47 -1.98, 151.81 -3.05, 283.25 -4.43 M0.36 0.29 C86.2 -1.38, 172.88 -3.57, 284.5 -5.62" stroke="#1e1e1e" stroke-width="1" fill="none"></path></g><g transform="translate(2204.2996432222526 641.396074862515) rotate(0 142.4301388612571 -2.448048163119637)"><path d="M285.89 -4.67 L271.52 -0.24 L272.1 -12.86 L283.09 -4.24" stroke="none" stroke-width="0" fill="#1e1e1e" fill-rule="evenodd"></path><path d="M285.6 -4.9 C281.25 -5.14, 278.85 -2.9, 269.95 2.49 M284.86 -5.33 C279.98 -3.28, 275.95 -1.64, 271.19 1.31 M269.92 1.87 C270.92 -2.78, 269.83 -9.34, 270.64 -12.65 M271.53 0.88 C270.57 -4.5, 270.84 -9.31, 271.15 -11.17 M269.83 -10.9 C274.68 -9.73, 280.04 -8.56, 285.86 -4.19 M270.88 -10.95 C274.84 -9.39, 279.06 -8.28, 285.09 -5.71 M284.5 -5.62 C284.5 -5.62, 284.5 -5.62, 284.5 -5.62 M284.5 -5.62 C284.5 -5.62, 284.5 -5.62, 284.5 -5.62" stroke="#1e1e1e" stroke-width="1" fill="none"></path></g></g><mask></mask><g stroke-linecap="round"><g transform="translate(2698.3858970504016 501.24620153478315) rotate(0 18.9949934772485 51.23436324592146)"><path d="M-1.88 -0.71 C11.02 27.83, 21.58 59.18, 39.87 102.01 M0.99 0.82 C16.03 35.02, 29.3 71.39, 39.72 103.18" stroke="#1e1e1e" stroke-width="1" fill="none"></path></g><g transform="translate(2698.3858970504016 501.24620153478315) rotate(0 18.9949934772485 51.23436324592146)"><path d="M38.42 104.72 L29.51 93.14 L41.31 86.34 L38.2 102.19" stroke="none" stroke-width="0" fill="#1e1e1e" fill-rule="evenodd"></path><path d="M38.31 102.65 C36.18 99.27, 32.59 98.11, 28.74 92.08 M40.46 103.8 C36.5 98.64, 32.03 95.01, 28.62 92.95 M29.42 93.24 C32.74 90.97, 35.12 91.96, 41.1 88.2 M29.11 92.25 C33.5 91.06, 37.48 89.19, 41.37 88.67 M40.56 89.72 C39.14 93.12, 40.02 101.51, 38.54 103.86 M40.89 88.65 C41.39 94.73, 40.35 100.38, 39.18 102.72 M39.72 103.18 C39.72 103.18, 39.72 103.18, 39.72 103.18 M39.72 103.18 C39.72 103.18, 39.72 103.18, 39.72 103.18" stroke="#1e1e1e" stroke-width="1" fill="none"></path></g></g><mask></mask><g transform="translate(2358.810621025659 10) rotate(0 151.865966796875 22.5)"><text x="0" y="0" font-family="Virgil, Segoe UI Emoji" font-size="36px" fill="#e03131" text-anchor="start" style="white-space: pre;" direction="ltr" dominant-baseline="text-before-edge">Focus for now ....</text></g><g stroke-linecap="round" transform="translate(1851.2718456920036 78.41943883144927) rotate(0 630.2809541683758 447.2989833664002)"><path d="M0.54 -0.49 C428.65 3.41, 855.8 3.64, 1260.7 -0.72 M0 -0.18 C278.21 4.75, 556.47 4.62, 1260.22 -0.37 M1260.88 0.58 C1260.91 190.92, 1261.29 382.01, 1259.79 894.32 M1260.48 0.26 C1258.9 272.47, 1258.89 544.46, 1260.25 894.22 M1259.93 894.77 C994.19 895.74, 727.24 894.34, -0.45 895.11 M1260.54 894.48 C942.21 890.63, 624.18 890.21, 0.22 894.63 M-0.57 894.82 C1.5 644.73, 0.41 396.27, -0.53 -0.32 M-0.19 894.37 C-3.6 548.86, -3.5 202.52, -0.14 -0.06" stroke="#e03131" stroke-width="4" fill="none"></path></g></svg>